<svg font-family="Helvetica, Arial, sans-serif" viewBox="0 0 600 400" xmlns="http://www.w3.org/2000/svg"><text font-size="20" font-weight="bold" text-anchor="middle" x="50%" y="30">How Decentralized Technology Rewrites Business Rules</text><rect fill="#6495ed" height="60" rx="10" width="100" x="50" y="80"/><g fill="#fff" text-anchor="middle"><text font-size="12" x="100" y="115">Web2</text><g font-size="10"><text x="100" y="130">Centralized</text><text x="100" y="142">Platforms</text></g></g><path d="m150 110h50" stroke="#000" stroke-width="2"/><path d="m200 105v10l10-5z"/><circle cx="230" cy="110" fill="#87ceeb" r="25"/><text font-size="12" text-anchor="middle" x="230" y="180">User</text><path d="m255 110h50" stroke="#000" stroke-width="2"/><path d="m305 105v10l10-5z"/><circle cx="345" cy="110" fill="#ffd700" r="25"/><text font-size="20" font-weight="bold" text-anchor="middle" x="345" y="115">₿</text><text font-size="12" text-anchor="middle" x="345" y="180">Value Creation</text><path d="m230 135v45" stroke="#000" stroke-width="2"/><path d="m225 180h10l-5 10z"/><rect fill="none" height="90" rx="10" stroke="#000" stroke-width="2" width="160" x="150" y="200"/><g text-anchor="middle"><text font-size="18" font-weight="bold" x="230" y="230">Web3</text><text font-size="12" x="230" y="255">Decentralized</text><text font-size="12" x="230" y="270">Networks</text></g></svg>